<?xml version="1.0" encoding="UTF-8"?>
<svg id="_图层_2" data-name="图层_2" xmlns="http://www.w3.org/2000/svg" viewBox="0 0 5873.07 908.87">
  <defs>
    <style>
      .cls-1 {
        fill: #4c3626;
      }
    </style>
  </defs>
  <g id="_图层_1-2" data-name="图层_1">
    <g>
      <path class="cls-1" d="M454.43,900.87c-60.27,0-118.74-11.8-173.77-35.08-53.16-22.48-100.9-54.68-141.91-95.68-41-41-73.19-88.75-95.68-141.91-23.28-55.04-35.08-113.5-35.08-173.77s11.8-118.73,35.08-173.77c22.48-53.16,54.67-100.9,95.68-141.91,41-41,88.75-73.19,141.91-95.68,55.04-23.28,113.5-35.08,173.77-35.08s118.74,11.8,173.77,35.08c53.16,22.49,100.9,54.68,141.91,95.68,41,41,73.19,88.75,95.68,141.91,23.28,55.04,35.08,113.5,35.08,173.77s-11.8,118.74-35.08,173.77c-22.49,53.16-54.68,100.9-95.68,141.91s-88.75,73.19-141.91,95.68c-55.04,23.28-113.5,35.08-173.77,35.08ZM310.07,545.57c-1.77,1.46-2.83,3.57-2.92,5.81-.1,2.25.78,4.45,2.4,6.04,16.09,15.72,30.72,32.97,43.46,51.27,13.64,19.54,25.26,40.26,34.55,61.59.96,2.11,1.84,4.24,2.66,6.25,1.61,3.89,2.84,6.43,4.03,8.89,5.13,10.61,10.94,22.63,52.45,151.73,1.1,3.43,4.14,5.64,7.74,5.64s6.64-2.21,7.74-5.64c41.5-129.09,47.32-141.12,52.44-151.73,1.19-2.46,2.42-5,4.03-8.87.96-2.35,1.78-4.29,2.65-6.21,9.31-21.39,20.94-42.11,34.57-61.64,12.74-18.3,27.36-35.55,43.46-51.27,1.62-1.58,2.49-3.78,2.4-6.03-.09-2.24-1.14-4.35-2.88-5.78l-1.06-.87c-.11-.11-.22-.21-.35-.3-5.85-4.83-11.67-10-17.32-15.34-26.72-25.4-44.08-49.96-41.97-87.23,2.45-43.16,22.06-88.94,38.09-119.74,10.82-20.78,23.76-40.6,38.44-58.9,7.59-9.47,15.61-18.5,23.82-26.82,4.01-4.09,8.17-8.14,12.36-12.04.49-.45,1.78-1.4,2.64-2.03.03-.01.06-.02.08-.02.07,0,.11.03.13.06-10.42,54.43-12.93,110.26-7.49,165.98.5,5.08,1.09,10.13,1.61,14.4,3.18,25.89,8.12,51.69,14.66,76.69v.08s.13.5.13.5c1.67,6.36,3.48,12.83,5.4,19.23,2.99,9.99,6.34,20.11,9.94,30.08l.08.2c13.34,31.6,32.51,60.02,56.97,84.48,26.39,26.39,57.29,46.55,91.86,59.93.98.38,1.99.57,3,.57,3.09,0,5.96-1.84,7.32-4.68,1.35-2.83.95-6.12-1.05-8.58-8.61-10.61-17.02-21.8-25.01-33.24-33.59-48.31-59.4-101.27-76.73-157.41-9.27-30.01-16.12-61.18-20.35-92.66-.88-6.59-1.69-13.61-2.4-20.85-1.24-12.47-2.07-25.44-2.46-38.57-.4-12.5-.39-25.21.05-37.78,1.24-36.99,6.14-74.02,14.56-110.06,3.12-13.26,6.69-26.38,10.62-39.01.78-2.51.34-5.16-1.21-7.27-1.52-2.07-3.95-3.31-6.49-3.31-.68,0-1.36.09-2.02.26-15.78,4.03-31.32,9.14-46.16,15.17-97.11,39.19-172.77,118.49-207.58,217.57-7.62,21.66-13.14,43.98-16.53,66.68-3.38-22.7-8.91-45.02-16.53-66.68-34.81-99.08-110.47-178.38-207.59-217.57-14.83-6.03-30.37-11.14-46.15-15.17-.66-.17-1.34-.26-2.02-.26-2.54,0-4.96,1.24-6.49,3.31-1.55,2.11-2,4.76-1.21,7.27,3.93,12.63,7.5,25.76,10.62,39.02,8.42,36.04,13.32,73.07,14.56,110.04.44,12.61.46,25.31.05,37.78-.39,13.14-1.22,26.11-2.46,38.57-.71,7.28-1.52,14.29-2.4,20.85-4.23,31.47-11.08,62.64-20.35,92.66-17.33,56.14-43.14,109.11-76.73,157.42-7.97,11.43-16.39,22.61-25.01,33.24-2,2.46-2.4,5.75-1.05,8.58,1.35,2.84,4.23,4.68,7.32,4.68,1.02,0,2.03-.19,3-.57,34.57-13.38,65.47-33.55,91.86-59.93,24.46-24.46,43.63-52.88,56.97-84.48l.08-.2c3.61-9.99,6.96-20.11,9.95-30.08,1.91-6.38,3.73-12.84,5.4-19.23l.13-.5v-.09c6.54-25,11.47-50.8,14.66-76.68.55-4.53,1.12-9.4,1.61-14.4,5.44-55.72,2.92-111.55-7.48-165.92,0-.09.09-.14.13-.14.93.67,2.23,1.63,2.73,2.09,4.17,3.87,8.33,7.92,12.34,12.01,8.23,8.33,16.24,17.36,23.83,26.83,14.68,18.29,27.61,38.11,38.44,58.9,16.03,30.8,35.65,76.58,38.09,119.74,2.11,37.27-15.25,61.83-41.98,87.24-5.64,5.34-11.47,10.5-17.33,15.35-.04.03-.12.1-.12.1-.07.06-.14.12-.2.19l-1.02.84ZM454.43,673.38s-.08,0-.1-.01c0-.01,0-.05-.02-.09-3.27-18.61-9.21-46.45-18.92-73.43-6.22-17.18-13.8-34.05-22.53-50.15l-.1-.19-.12-.17c-6.73-9.79-12.78-17.96-16.67-23.09-.04-.04-.01-.18.1-.18,1.63.2,3.18.3,4.65.3,9.78,0,16.97-4.31,20.81-12.47l.08-.17c13.74-33.13,30.3-37.22,32.81-37.66,2.51.44,19.07,4.53,32.81,37.66l.08.17c3.83,8.16,11.03,12.47,20.81,12.47,1.48,0,3.02-.1,4.6-.3h0c.17,0,.19.13.19.13-3.92,5.17-9.97,13.33-16.68,23.1l-.12.17-.1.19c-8.73,16.1-16.32,32.98-22.54,50.17-9.71,26.98-15.65,54.82-18.92,73.43,0,.05-.02.09-.03.11,0,0,0,0-.02,0-.02,0-.04,0-.08,0Z"/>
      <path class="cls-1" d="M454.43,12c59.73,0,117.67,11.7,172.21,34.77,52.68,22.28,100,54.19,140.64,94.82,40.64,40.63,72.54,87.95,94.82,140.64,23.07,54.54,34.77,112.48,34.77,172.21s-11.7,117.67-34.77,172.21c-6.06,14.33-12.83,28.26-20.3,41.77.59-3.38-.3-6.89-2.56-9.68-8.55-10.54-16.91-21.65-24.83-33-33.36-47.98-58.99-100.57-76.19-156.32-9.2-29.79-16-60.75-20.21-92.01-.88-6.54-1.68-13.5-2.39-20.72-1.23-12.37-2.05-25.25-2.44-38.31-.4-12.4-.38-25.02.05-37.52,1.23-36.72,6.09-73.49,14.45-109.26,3.09-13.17,6.64-26.21,10.55-38.75,1.16-3.74.5-7.68-1.81-10.83-2.27-3.09-5.9-4.93-9.71-4.93-1.01,0-2.02.13-3.01.38-15.96,4.08-31.67,9.24-46.66,15.34-98.18,39.62-174.68,119.79-209.87,219.95-5.23,14.88-9.49,30.06-12.75,45.47-3.26-15.4-7.52-30.59-12.75-45.47-35.19-100.16-111.68-180.33-209.85-219.95-15.01-6.1-30.72-11.26-46.68-15.34-.99-.25-2-.38-3.01-.38-3.8,0-7.43,1.85-9.71,4.94-2.31,3.15-2.98,7.09-1.81,10.83,3.9,12.54,7.45,25.57,10.55,38.74,8.37,35.79,13.23,72.56,14.46,109.28.44,12.51.45,25.13.05,37.52-.39,13.04-1.21,25.92-2.44,38.3-.71,7.23-1.51,14.2-2.39,20.7-4.2,31.25-11,62.21-20.21,92.01-17.2,55.75-42.84,108.34-76.18,156.3-7.93,11.36-16.29,22.47-24.84,33.02-2.26,2.79-3.15,6.3-2.56,9.68-7.47-13.51-14.24-27.44-20.3-41.77-23.07-54.54-34.77-112.48-34.77-172.21s11.7-117.67,34.77-172.21c22.28-52.68,54.19-100,94.82-140.64,40.64-40.64,87.95-72.54,140.64-94.82,54.54-23.07,112.48-34.77,172.21-34.77M647.75,232.84c-8.76,51.22-10.62,103.61-5.51,155.9.49,5.05,1.07,9.95,1.62,14.5,3.18,25.89,8.11,51.69,14.63,76.71v.09l.26,1c1.68,6.41,3.51,12.93,5.44,19.36,3.01,10.05,6.38,20.25,10.01,30.29l.07.2.08.19c13.55,32.08,33,60.93,57.83,85.75,26.79,26.78,58.16,47.25,93.24,60.84,1.44.56,2.94.84,4.45.84,2.94,0,5.75-1.11,7.92-3-19.28,33.4-42.88,64.13-70.51,91.77-40.64,40.64-87.95,72.54-140.64,94.82-54.54,23.07-112.48,34.77-172.21,34.77s-117.67-11.7-172.21-34.77c-52.68-22.28-100-54.19-140.64-94.82-27.64-27.64-51.23-58.36-70.51-91.77,2.17,1.89,4.98,3,7.92,3,1.51,0,3.01-.28,4.45-.84,35.09-13.58,66.46-34.05,93.24-60.84,24.83-24.83,44.28-53.68,57.83-85.75l.08-.19.07-.2c3.64-10.07,7.01-20.26,10.01-30.29,1.93-6.44,3.76-12.95,5.44-19.36l.26-1v-.09c6.52-25.02,11.44-50.82,14.63-76.73.55-4.54,1.12-9.43,1.62-14.49,5.11-52.3,3.25-104.69-5.51-155.9,2.16,2.1,4.3,4.23,6.41,6.38,8.12,8.23,16.04,17.14,23.55,26.51,14.51,18.09,27.3,37.69,38.01,58.24,15.85,30.45,35.24,75.67,37.65,118.12,2.03,35.73-14.82,59.47-40.73,84.1-5.58,5.28-11.34,10.38-17.13,15.17-.04.03-.09.07-.13.1l-.11.09-.05.04s-.1.09-.14.13l-.91.75-.06.05h-.02c-2.59,2.16-4.15,5.32-4.3,8.68-.14,3.39,1.17,6.69,3.6,9.07,15.91,15.54,30.37,32.6,42.98,50.7,13.48,19.31,24.98,39.8,34.16,60.89l.02.06.03.06c.91,2.01,1.78,4.1,2.59,6.09,1.65,3.97,2.9,6.57,4.12,9.08,5.07,10.49,10.82,22.38,52.24,151.22,1.62,5.03,6.26,8.42,11.55,8.42s9.93-3.38,11.55-8.42c41.42-128.83,47.17-140.72,52.24-151.21,1.21-2.51,2.47-5.11,4.13-9.11.95-2.31,1.75-4.22,2.58-6.06l.02-.05.02-.05c9.18-21.09,20.68-41.58,34.16-60.9,12.6-18.09,27.06-35.15,42.97-50.69,2.43-2.37,3.74-5.68,3.6-9.07-.14-3.38-1.72-6.55-4.33-8.7l-.07-.06h0s-.88-.73-.88-.73c-.06-.05-.11-.1-.17-.15l-.03-.03-.08-.06c-.06-.05-.12-.1-.18-.15-5.77-4.77-11.53-9.87-17.1-15.14-25.92-24.64-42.76-48.38-40.74-84.11,2.41-42.45,21.8-87.67,37.65-118.12,10.7-20.55,23.49-40.15,38.01-58.24,7.51-9.37,15.43-18.29,23.57-26.53,2.09-2.14,4.23-4.26,6.39-6.36M454.43,480.18c3.38.94,17.23,6.42,29.12,35.09l.07.17.08.17c4.04,8.6,11.51,13.71,21.22,14.62-3.42,4.64-7.55,10.38-11.97,16.81l-.24.35-.2.37c-8.83,16.27-16.49,33.34-22.79,50.73-6.8,18.9-11.77,38.21-15.28,54.52-3.51-16.32-8.47-35.63-15.28-54.54-6.28-17.36-13.95-34.42-22.77-50.69l-.2-.37-.24-.35c-4.43-6.45-8.57-12.19-11.99-16.84,9.71-.91,17.17-6.02,21.22-14.61l.08-.17.07-.17c11.89-28.68,25.75-34.15,29.11-35.09M454.43,4C205.67,4,4,205.67,4,454.43s201.67,450.44,450.43,450.44,450.44-201.67,450.44-450.44S703.2,4,454.43,4h0ZM508.13,522.38c-6.51,0-13.44-2.2-17.19-10.17-15.28-36.84-34.48-39.93-36.34-40.15-.08-5.18.05-10.36.31-15.44,1.71-34.47,8.39-68.66,19.83-101.2,34.05-96.93,108.65-176.18,205.31-215.19,14.7-5.97,29.95-10.99,45.65-15,.35-.09.69-.13,1.03-.13,2.66,0,4.73,2.65,3.88,5.39-4.02,12.92-7.58,26.02-10.7,39.29-8.39,35.9-13.4,72.98-14.66,110.83-.44,12.6-.47,25.28-.06,38.04.38,12.87,1.18,25.83,2.48,38.84.69,7.02,1.49,14.03,2.42,20.99,4.32,32.1,11.22,63.29,20.49,93.3,17.71,57.41,44.01,110.69,77.27,158.52,8,11.47,16.39,22.64,25.18,33.48,2.32,2.86.06,6.74-3.16,6.74-.5,0-1.03-.09-1.56-.3-34.23-13.25-64.96-33.52-90.47-59.03-23.68-23.68-42.88-51.88-56.11-83.21-3.55-9.82-6.85-19.78-9.87-29.87-1.9-6.33-3.69-12.68-5.36-19.09,0-.05,0-.14-.03-.19-6.52-24.84-11.44-50.39-14.66-76.55-.58-4.79-1.13-9.52-1.6-14.3-5.51-56.45-2.71-111.77,7.43-164.78.52-2.74-1.66-4.89-4.06-4.89-.82,0-1.67.25-2.44.82-1.29.95-2.39,1.77-2.99,2.32-4.26,3.96-8.42,8.01-12.49,12.16-8.5,8.61-16.53,17.69-24.1,27.12-14.85,18.51-27.89,38.48-38.87,59.55-18.68,35.9-36.23,80.6-38.54,121.36-2.2,38.84,16.34,64.81,43.21,90.36,5.69,5.39,11.53,10.56,17.55,15.54.03.03.08.06.11.11l1.24,1.02.03.03c1.82,1.5,1.91,4.22.23,5.87-16.27,15.89-30.99,33.24-43.95,51.84-13.62,19.5-25.39,40.35-34.93,62.28-.93,2.06-1.82,4.18-2.7,6.33-8.35,20.1-5.41,1.74-56.58,160.91-.61,1.91-2.27,2.86-3.93,2.86s-3.32-.95-3.93-2.86c-51.18-159.18-48.24-140.81-56.59-160.91-.88-2.15-1.76-4.26-2.7-6.33-9.54-21.92-21.32-42.77-34.93-62.28-12.96-18.61-27.68-35.96-43.95-51.84-1.68-1.64-1.59-4.37.23-5.87l.03-.03,1.24-1.02c.03-.05.08-.08.11-.11,6.02-4.98,11.86-10.15,17.55-15.54,26.87-25.55,45.42-51.52,43.21-90.36-2.31-40.77-19.86-85.47-38.54-121.36-10.98-21.07-24.01-41.04-38.87-59.55-7.56-9.44-15.6-18.51-24.1-27.12-4.07-4.15-8.22-8.2-12.49-12.16-.61-.56-1.7-1.37-2.99-2.32-.77-.57-1.62-.82-2.44-.82-2.4,0-4.58,2.15-4.06,4.89,10.14,53.01,12.94,108.33,7.43,164.78-.47,4.79-1.02,9.52-1.6,14.3-3.22,26.16-8.14,51.71-14.66,76.55-.03.06-.03.14-.03.19-1.68,6.41-3.47,12.76-5.36,19.09-3.02,10.09-6.33,20.05-9.87,29.87-13.23,31.33-32.43,59.53-56.11,83.21-25.52,25.52-56.24,45.78-90.47,59.03-.53.21-1.06.3-1.56.3-3.22,0-5.47-3.88-3.16-6.74,8.79-10.84,17.18-22.01,25.18-33.48,33.26-47.84,59.55-101.12,77.27-158.52,9.27-30.01,16.17-61.2,20.49-93.3.94-6.96,1.73-13.97,2.42-20.99,1.29-13.01,2.09-25.97,2.48-38.84.41-12.76.38-25.44-.06-38.04-1.27-37.85-6.27-74.93-14.66-110.83-3.12-13.27-6.68-26.37-10.7-39.29-.85-2.73,1.22-5.39,3.88-5.39.33,0,.68.04,1.03.13,15.69,4.01,30.95,9.03,45.64,15,96.66,39.01,171.26,118.25,205.31,215.19,11.44,32.54,18.13,66.73,19.83,101.2.26,5.08.38,10.26.31,15.44-1.86.22-21.06,3.3-36.34,40.15-3.75,7.97-10.68,10.17-17.2,10.17-1.39,0-2.77-.1-4.09-.27-.19-.02-.38-.04-.56-.04-3.32,0-5.39,3.82-3.29,6.59,4.32,5.7,10.16,13.64,16.56,22.94,8.62,15.9,16.07,32.45,22.28,49.6,9.45,26.24,15.33,53.32,18.74,72.76.4,2.28,2.23,3.41,4.06,3.41s3.66-1.14,4.06-3.41c3.42-19.44,9.3-46.52,18.74-72.76,6.21-17.16,13.67-33.72,22.3-49.63,6.38-9.28,12.22-17.21,16.54-22.9,2.1-2.77.03-6.59-3.29-6.59-.18,0-.37.01-.56.04-1.32.17-2.7.27-4.09.27h0Z"/>
    </g>
    <g>
      <path class="cls-1" d="M1147.57,162.78h708.76v346.22c-4.18-10.02-9.9-16.94-17.2-20.7-7.3-3.76-14.43-5.65-21.37-5.65h-141.75l191.78,259.68h-156.34l-182.4-259.68h-226.17v259.68h-136.54V187.86l-18.77-25.07ZM1719.79,356.3v-65.92c0-21.97-14.8-39.79-33.06-39.79h-350.8c-18.26,0-33.06,17.81-33.06,39.79v65.92c0,21.97,14.8,39.79,33.06,39.79h350.8c18.26,0,33.06-17.81,33.06-39.79Z"/>
      <path class="cls-1" d="M2626.74,501.46c-7.3-3.32-14.43-5-21.37-5h-495.09v158.06h553.45v112.88c-2.79-10.02-8.18-16.71-16.15-20.07-8-3.32-15.12-5-21.37-5h-650.39V187.86l-19.8-25.07h707.72v112.88c-2.79-10.85-8.18-17.98-16.15-21.32-8-3.34-15.12-5.03-21.37-5.03h-515.93v159.33h532.61v112.88c-3.49-10.02-8.86-16.71-16.15-20.07Z"/>
      <path class="cls-1" d="M2735.29,164.02h618.6l134.98,109.34v349.61l-134.98,119.36h-599.83V189.12l-18.77-25.1ZM2890.6,655.77h338.52c96.97,0,157.31-94.61,157.31-211.32h0c0-107.06-68.35-193.86-157.31-193.86h-338.52v405.17Z"/>
      <path class="cls-1" d="M3569.8,250.59v-109.13l32.32,21.32h656.64v112.88c-3.49-10.85-9.04-17.74-16.68-20.7-7.65-2.9-14.59-4.38-20.84-4.38h-242.85v491.74h-135.51V250.59h-273.08Z"/>
      <path class="cls-1" d="M4339.7,162.78h753.58v579.55h-734.82V187.86l-18.77-25.07ZM4506.02,654.52h439.7c18.26,0,33.06-17.81,33.06-39.79v-325.63c0-21.97-14.8-39.79-33.06-39.79h-439.7c-18.26,0-33.06,17.81-33.06,39.79v325.63c0,21.97,14.8,39.79,33.06,39.79Z"/>
      <path class="cls-1" d="M5856.39,539.1c-7.65-3.32-14.59-5.03-20.84-5.03h-515.93v208.26h-135.51V187.86l-19.8-25.07h708.76v397.64c-3.49-10.85-9.04-17.95-16.68-21.32ZM5737.58,407.75v-117.37c0-21.97-14.8-39.79-33.06-39.79h-351.84c-18.26,0-33.06,17.81-33.06,39.79v117.37c0,21.97,14.8,39.79,33.06,39.79h351.84c18.26,0,33.06-17.81,33.06-39.79Z"/>
    </g>
  </g>
</svg>